<?xml version="1.0" encoding="UTF-8"?>
<svg version="1.1" xmlns="http://www.w3.org/2000/svg" width="810" height="748"  fill="black">
<path d="M0 0 C10.80053087 4.63636485 21.44158852 9.52482491 32 14.6875 C33.44489482 15.39227471 34.88980059 16.09702695 36.3347168 16.80175781 C39.21448593 18.2075439 42.09284341 19.6161688 44.97021484 21.02685547 C48.56542625 22.7890679 52.16725362 24.5374307 55.76953125 26.28515625 C97.50814555 46.67419702 130.8906244 72.189999 146.75 117.17578125 C165.51609217 172.98243108 136.07316738 232.86957315 112 282 C111.00324552 284.00161947 110.00451387 286.00226331 109 288 C104.33356898 287.34488304 100.33438936 285.49042731 96.109375 283.5078125 C95.36415588 283.16120575 94.61893677 282.814599 93.85113525 282.45748901 C92.28319284 281.72569074 90.7166259 280.990939 89.15136719 280.25341797 C86.7493966 279.12471646 84.33994344 278.01322138 81.9296875 276.90234375 C80.40576416 276.18853631 78.88230959 275.47372705 77.359375 274.7578125 C76.27508209 274.26077316 76.27508209 274.26077316 75.16888428 273.75369263 C73.40677583 272.9133916 71.6972046 271.96469089 70 271 C68.75172032 267.25516096 69.75688265 265.96043973 71.45239258 262.5559082 C71.81872803 261.8362085 72.18506348 261.11650879 72.5625 260.375 C83.744614 237.48296639 90.94073603 212.3012129 83.13671875 187.1640625 C81.6316894 182.97480555 80.03959886 178.95743063 78 175 C77.48179687 173.93265625 77.48179687 173.93265625 76.953125 172.84375 C64.0658425 147.77533747 38.09025902 130.94446581 14 118.0625 C12.9776123 117.51420532 12.9776123 117.51420532 11.93457031 116.95483398 C11.27553711 116.61009033 10.61650391 116.26534668 9.9375 115.91015625 C9.36902344 115.61246338 8.80054688 115.31477051 8.21484375 115.00805664 C4.87641862 113.48861689 1.44221543 112.26598129 -2 111 C-12.08252512 132.29563086 -22.11009257 153.61408818 -32 175 C-35.1028667 181.70893531 -38.20686233 188.41734692 -41.3125 195.125 C-41.71766846 196.00017273 -42.12283691 196.87534546 -42.5402832 197.77703857 C-48.43836037 210.5132833 -54.38245048 223.22695934 -60.36968994 235.92150879 C-66.44012233 248.79267375 -72.44763685 261.69203275 -78.42773438 274.60546875 C-88.20774057 295.72056287 -98.03850282 316.81179494 -107.88537598 337.89575195 C-109.94475663 342.30534292 -112.00385047 346.71506765 -114.0625 351.125 C-114.35277069 351.74679138 -114.64304138 352.36858276 -114.94210815 353.00921631 C-119.13921161 362.00098782 -123.32371616 370.99853523 -127.5 380 C-129.66609504 384.66693223 -131.83279032 389.33358527 -134 394 C-134.28401672 394.61164001 -134.56803345 395.22328003 -134.86065674 395.85345459 C-178.18164011 489.13436279 -178.18164011 489.13436279 -204 510 C-204.77730469 510.63808594 -205.55460938 511.27617188 -206.35546875 511.93359375 C-231.21649207 531.22815497 -262.87388068 534.37399167 -293.33984375 531.69140625 C-296.60464997 531.26092422 -299.78015716 530.68827107 -303 530 C-304.27617187 529.75507812 -305.55234375 529.51015625 -306.8671875 529.2578125 C-338.53667425 522.80807396 -372.07050171 506.4243553 -390.4387207 479.00683594 C-403.75186896 458.58914077 -409.24254538 434.97789994 -404.33544922 410.83544922 C-397.90450969 381.23875657 -382.59403258 355.73506485 -356.86669922 339.15673828 C-331.55254001 323.47030272 -301.15996616 318.72225669 -272.06640625 325.16381836 C-243.76807221 331.99892779 -218.73231555 345.47123593 -198.47265625 366.52734375 C-196.81385258 368.23665912 -196.81385258 368.23665912 -194 370.4375 C-190.88085738 373.10176766 -188.33340683 375.94880266 -185.6796875 379.0625 C-183.56353555 381.50345667 -181.31829594 383.75195545 -179 386 C-178.72704102 385.13568359 -178.45408203 384.27136719 -178.17285156 383.38085938 C-177.03553482 380.10243261 -175.71164395 377.04459106 -174.234375 373.90625 C-173.40486328 372.13701172 -173.40486328 372.13701172 -172.55859375 370.33203125 C-171.9557556 369.05467502 -171.35289026 367.77733163 -170.75 366.5 C-170.12074207 365.16032138 -169.4918423 363.82047448 -168.86328125 362.48046875 C-167.55802569 359.69856545 -166.25123677 356.91739034 -164.94335938 354.13671875 C-162.23739598 348.38057996 -159.55021447 342.61569906 -156.86291504 336.85083008 C-155.40950381 333.73346963 -153.95467531 330.61677072 -152.5 327.5 C-151.91665999 326.25000312 -151.33332665 325.00000312 -150.75 323.75 C-121.875 261.875 -93 200 -35.25 76.25 C-34.96127518 75.63130035 -34.67255035 75.01260071 -34.37507629 74.37515259 C-33.79149978 73.12463876 -33.20791213 71.87413014 -32.62431335 70.62362671 C-31.16960938 67.50653067 -29.7150966 64.3893457 -28.26098633 61.27197266 C-25.59296543 55.55267976 -22.92329816 49.83417738 -20.24688721 44.11880493 C-13.38397091 29.46298067 -6.57608413 14.78749078 0 0 Z " transform="translate(520,102)"/>
<path d="M0 0 C1.16213516 -0.00029205 2.32427032 -0.00058411 3.5216217 -0.00088501 C7.33073615 0.00049897 11.13965055 0.01601628 14.94873047 0.03173828 C17.60245088 0.03547173 20.25616046 0.03841562 22.90988159 0.04031372 C29.16050075 0.04650417 35.41104907 0.06288163 41.66163719 0.0830127 C49.4838838 0.10765311 57.30614217 0.11852883 65.12841797 0.12939453 C79.06597299 0.148815 93.0033737 0.18888896 106.94091797 0.22705078 C106.94091797 18.37705078 106.94091797 36.52705078 106.94091797 55.22705078 C98.94873047 55.25283203 90.95654297 55.27861328 82.72216797 55.30517578 C77.65442768 55.33034668 72.58674692 55.35668159 67.51904297 55.38720703 C59.47802419 55.43553151 51.43714714 55.48017089 43.39599609 55.49804688 C36.91193042 55.51320743 30.42822564 55.54764339 23.94432068 55.5953598 C21.47247965 55.6101796 19.0005871 55.61809213 16.52870178 55.61893463 C13.06220165 55.62130409 9.59669897 55.64838458 6.13037109 55.68115234 C4.60259033 55.6736068 4.60259033 55.6736068 3.04394531 55.66590881 C-3.08250586 55.75531275 -8.00834629 56.56390428 -13.05908203 60.22705078 C-16.90761573 64.54437122 -17.76072807 69.01697137 -17.50830078 74.72705078 C-16.76117093 78.88499082 -15.03591993 82.22944425 -12.05908203 85.22705078 C-6.33188957 89.07590012 -0.64873876 88.65119383 5.99560547 88.63330078 C7.75712448 88.64955505 7.75712448 88.64955505 9.55422974 88.6661377 C13.3081813 88.7003485 17.06183127 88.71596398 20.81591797 88.72705078 C49.33745716 88.8124891 73.60389828 90.1901794 95.52294922 110.71533203 C110.13098241 125.889751 116.65845813 144.18445197 116.33862305 165.00512695 C115.68467493 183.57546194 108.05053892 199.33976668 95.50341797 212.85205078 C94.65779297 213.63580078 93.81216797 214.41955078 92.94091797 215.22705078 C92.42658203 215.74654297 91.91224609 216.26603516 91.38232422 216.80126953 C73.40202256 234.00822488 51.53426249 234.81835116 28.10107422 234.61767578 C25.52176861 234.61020226 22.94245727 234.60451459 20.36314392 234.6005249 C14.30735719 234.58690003 8.25191087 234.55549249 2.19625133 234.51512694 C-5.38815165 234.46568927 -12.97260455 234.44406031 -20.55712891 234.42236328 C-34.05800897 234.3836208 -47.55824614 234.30345859 -61.05908203 234.22705078 C-61.05908203 216.07705078 -61.05908203 197.92705078 -61.05908203 179.22705078 C-53.35564453 179.20126953 -45.65220703 179.17548828 -37.71533203 179.14892578 C-32.82988224 179.12375406 -27.94449415 179.09741852 -23.05908203 179.06689453 C-15.30777769 179.01857521 -7.55661621 178.97452448 0.19482422 178.95605469 C6.4454775 178.94089106 12.69575665 178.9064497 18.94624329 178.85874176 C21.32876836 178.84392513 23.71134685 178.83600961 26.09391785 178.83516693 C29.43589994 178.8327965 32.77684877 178.80570856 36.11865234 178.77294922 C37.0997699 178.77797958 38.08088745 178.78300995 39.09173584 178.78819275 C45.16570323 178.69631107 49.89536738 177.75600523 54.94091797 174.22705078 C58.64581526 170.04716665 60.19221474 165.80793324 59.94091797 160.22705078 C58.7478988 154.02105683 56.07687003 150.75801783 50.94091797 147.22705078 C47.91796551 146.21939996 45.85997724 146.09111992 42.69775391 146.06933594 C41.62523376 146.05907379 40.55271362 146.04881165 39.44769287 146.03823853 C38.2853009 146.03093719 37.12290894 146.02363586 35.92529297 146.01611328 C33.45132838 145.98801275 30.97737015 145.95934814 28.50341797 145.93017578 C24.61344805 145.88916706 20.72359267 145.85227413 16.83349609 145.82568359 C-17.92857157 145.56759349 -17.92857157 145.56759349 -31.87158203 138.53955078 C-32.58241943 138.19214844 -33.29325684 137.84474609 -34.02563477 137.48681641 C-40.01760035 134.45567511 -45.14110628 130.81114561 -50.05908203 126.22705078 C-50.75130859 125.61345703 -51.44353516 124.99986328 -52.15673828 124.36767578 C-66.24463653 111.22982848 -72.79486388 93.74433574 -74.23876953 74.87939453 C-74.88442259 55.11523699 -66.90368959 35.85185515 -53.52270508 21.52880859 C-38.85054559 6.59759803 -20.64862771 -0.13788733 0 0 Z " transform="translate(536.05908203125,452.77294921875)"/>
<path d="M0 0 C62.7 0 125.4 0 190 0 C190 18.15 190 36.3 190 55 C167.89 55 145.78 55 123 55 C123 114.07 123 173.14 123 234 C104.85 234 86.7 234 68 234 C68 174.93 68 115.86 68 55 C45.56 55 23.12 55 0 55 C0 36.85 0 18.7 0 0 Z " transform="translate(172,56)"/>
</svg>
